<svg width="29" height="29" viewBox="0 0 29 29" fill="none" xmlns="http://www.w3.org/2000/svg">
<path d="M6.82716 21.0855C8.01536 20.233 9.23708 19.5735 10.4923 19.1069C11.7478 18.6402 13.0837 18.4069 14.5001 18.4069C15.9164 18.4069 17.2557 18.6402 18.5178 19.1069C19.7799 19.5735 21.005 20.233 22.1932 21.0855C23.0189 20.0852 23.6214 19.0413 24.0006 17.9538C24.3798 16.8663 24.5694 15.7151 24.5694 14.5001C24.5694 11.6605 23.6011 9.27233 21.6646 7.33557C19.7278 5.39902 17.3397 4.43074 14.5001 4.43074C11.6605 4.43074 9.27233 5.39902 7.33557 7.33557C5.39902 9.27233 4.43074 11.6605 4.43074 14.5001C4.43074 15.7151 4.62367 16.8663 5.00953 17.9538C5.39559 19.0413 6.00147 20.0852 6.82716 21.0855ZM14.4965 15.5069C13.3242 15.5069 12.3369 15.1047 11.5345 14.3001C10.7324 13.4954 10.3313 12.5068 10.3313 11.3346C10.3313 10.1623 10.7337 9.17506 11.5385 8.37292C12.343 7.57059 13.3314 7.16943 14.5037 7.16943C15.676 7.16943 16.6633 7.5718 17.4656 8.37655C18.2678 9.1813 18.6688 10.1698 18.6688 11.3421C18.6688 12.5144 18.2665 13.5016 17.4617 14.3037C16.6572 15.1059 15.6687 15.5069 14.4965 15.5069ZM14.5094 26.5834C12.8452 26.5834 11.278 26.2662 9.80782 25.6319C8.33768 24.9975 7.05544 24.1332 5.96109 23.0391C4.86695 21.9447 4.00269 20.6641 3.36831 19.1972C2.73394 17.7303 2.41675 16.1627 2.41675 14.4946C2.41675 12.8267 2.73394 11.261 3.36831 9.79755C4.00269 8.33426 4.86695 7.05544 5.96109 5.96109C7.05544 4.86695 8.33607 4.00269 9.80299 3.36831C11.2699 2.73394 12.8374 2.41675 14.5055 2.41675C16.1734 2.41675 17.7391 2.73394 19.2026 3.36831C20.6659 4.00269 21.9447 4.86695 23.0391 5.96109C24.1332 7.05544 24.9975 8.33446 25.6319 9.79815C26.2662 11.262 26.5834 12.8262 26.5834 14.4907C26.5834 16.155 26.2662 17.7222 25.6319 19.1923C24.9975 20.6625 24.1332 21.9447 23.0391 23.0391C21.9447 24.1332 20.6657 24.9975 19.202 25.6319C17.7381 26.2662 16.1739 26.5834 14.5094 26.5834ZM14.5001 24.5694C15.5942 24.5694 16.6515 24.41 17.672 24.0912C18.6924 23.7724 19.6759 23.2471 20.6224 22.5153C19.6759 21.8374 18.6891 21.3188 17.662 20.9595C16.6349 20.6005 15.5809 20.4209 14.5001 20.4209C13.4192 20.4209 12.3653 20.6005 11.3382 20.9595C10.3111 21.3188 9.32429 21.8374 8.37776 22.5153C9.32429 23.2471 10.3078 23.7724 11.3282 24.0912C12.3486 24.41 13.4059 24.5694 14.5001 24.5694ZM14.5001 13.4932C15.131 13.4932 15.6479 13.2918 16.0507 12.8891C16.4535 12.4863 16.6548 11.9693 16.6548 11.3382C16.6548 10.7072 16.4535 10.1904 16.0507 9.78758C15.6479 9.3848 15.131 9.18341 14.5001 9.18341C13.8691 9.18341 13.3523 9.3848 12.9495 9.78758C12.5467 10.1904 12.3453 10.7072 12.3453 11.3382C12.3453 11.9693 12.5467 12.4863 12.9495 12.8891C13.3523 13.2918 13.8691 13.4932 14.5001 13.4932Z" fill="#24ABFF"/>
</svg>
