<svg width="30" height="30" viewBox="0 0 30 30" fill="none" xmlns="http://www.w3.org/2000/svg">
<path d="M7.0625 21.8125C8.29167 20.9306 9.55552 20.2483 10.8541 19.7656C12.1528 19.2829 13.5348 19.0416 15 19.0416C16.4652 19.0416 17.8506 19.2829 19.1563 19.7656C20.4619 20.2483 21.7293 20.9306 22.9584 21.8125C23.8126 20.7777 24.4358 19.6978 24.8281 18.5728C25.2204 17.4478 25.4166 16.2569 25.4166 15C25.4166 12.0625 24.4149 9.59198 22.4116 7.58844C20.408 5.58511 17.9375 4.58344 15 4.58344C12.0625 4.58344 9.59198 5.58511 7.58844 7.58844C5.5851 9.59198 4.58344 12.0625 4.58344 15C4.58344 16.2569 4.78302 17.4478 5.18219 18.5728C5.58156 19.6978 6.20833 20.7777 7.0625 21.8125ZM14.9963 16.0416C13.7835 16.0416 12.7622 15.6254 11.9322 14.7931C11.1024 13.9606 10.6875 12.938 10.6875 11.7253C10.6875 10.5126 11.1038 9.49135 11.9363 8.66156C12.7685 7.83156 13.791 7.41656 15.0038 7.41656C16.2165 7.41656 17.2378 7.83281 18.0678 8.66531C18.8976 9.49781 19.3125 10.5204 19.3125 11.7331C19.3125 12.9458 18.8963 13.9671 18.0638 14.7969C17.2315 15.6267 16.209 16.0416 14.9963 16.0416ZM15.0097 27.5C13.288 27.5 11.6668 27.1719 10.1459 26.5156C8.62511 25.8594 7.29865 24.9653 6.16656 23.8334C5.03469 22.7014 4.14063 21.3766 3.48438 19.8591C2.82813 18.3416 2.5 16.72 2.5 14.9944C2.5 13.269 2.82813 11.6493 3.48438 10.1353C4.14063 8.62156 5.03469 7.29865 6.16656 6.16656C7.29865 5.03469 8.62344 4.14063 10.1409 3.48438C11.6584 2.82813 13.28 2.5 15.0056 2.5C16.731 2.5 18.3507 2.82813 19.8647 3.48438C21.3784 4.14063 22.7014 5.03469 23.8334 6.16656C24.9653 7.29865 25.8594 8.62177 26.5156 10.1359C27.1719 11.6503 27.5 13.2684 27.5 14.9903C27.5 16.712 27.1719 18.3332 26.5156 19.8541C25.8594 21.3749 24.9653 22.7014 23.8334 23.8334C22.7014 24.9653 21.3782 25.8594 19.8641 26.5156C18.3497 27.1719 16.7316 27.5 15.0097 27.5ZM15 25.4166C16.1319 25.4166 17.2256 25.2517 18.2813 24.9219C19.3369 24.5921 20.3543 24.0486 21.3334 23.2916C20.3543 22.5903 19.3334 22.0539 18.2709 21.6822C17.2084 21.3107 16.1181 21.125 15 21.125C13.8819 21.125 12.7916 21.3107 11.7291 21.6822C10.6666 22.0539 9.64573 22.5903 8.66656 23.2916C9.64573 24.0486 10.6631 24.5921 11.7188 24.9219C12.7744 25.2517 13.8681 25.4166 15 25.4166ZM15 13.9584C15.6527 13.9584 16.1874 13.7501 16.6041 13.3334C17.0207 12.9168 17.2291 12.382 17.2291 11.7291C17.2291 11.0764 17.0207 10.5417 16.6041 10.125C16.1874 9.70833 15.6527 9.5 15 9.5C14.3473 9.5 13.8126 9.70833 13.3959 10.125C12.9793 10.5417 12.7709 11.0764 12.7709 11.7291C12.7709 12.382 12.9793 12.9168 13.3959 13.3334C13.8126 13.7501 14.3473 13.9584 15 13.9584Z" fill="black"/>
</svg>
