<svg width="25" height="25" viewBox="0 0 25 25" fill="none" xmlns="http://www.w3.org/2000/svg">
<g clip-path="url(#clip0_26_316)">
<path d="M16.7572 17.8894C15.8891 17.8894 15.1513 17.5856 14.5436 16.978C13.936 16.3703 13.6322 15.6325 13.6322 14.7644C13.6322 13.8964 13.936 13.1585 14.5436 12.5509C15.1513 11.9433 15.8891 11.6394 16.7572 11.6394C17.6252 11.6394 18.3631 11.9433 18.9707 12.5509C19.5783 13.1585 19.8822 13.8964 19.8822 14.7644C19.8822 15.6325 19.5783 16.3703 18.9707 16.978C18.3631 17.5856 17.6252 17.8894 16.7572 17.8894ZM16.7572 15.8061C17.0523 15.8061 17.2997 15.7063 17.4993 15.5066C17.699 15.307 17.7988 15.0596 17.7988 14.7644C17.7988 14.4693 17.699 14.2219 17.4993 14.0223C17.2997 13.8226 17.0523 13.7228 16.7572 13.7228C16.462 13.7228 16.2146 13.8226 16.015 14.0223C15.8153 14.2219 15.7155 14.4693 15.7155 14.7644C15.7155 15.0596 15.8153 15.307 16.015 15.5066C16.2146 15.7063 16.462 15.8061 16.7572 15.8061ZM10.5072 25.1811V22.1603C10.5072 21.7957 10.594 21.4528 10.7676 21.1316C10.9412 20.8104 11.1842 20.5544 11.4967 20.3634C12.0523 20.0335 12.6382 19.7601 13.2546 19.5431C13.8709 19.3261 14.5002 19.1655 15.1426 19.0613L16.7572 21.0144L18.3717 19.0613C19.0141 19.1655 19.6391 19.3261 20.2467 19.5431C20.8544 19.7601 21.436 20.0335 21.9915 20.3634C22.304 20.5544 22.5514 20.8104 22.7337 21.1316C22.916 21.4528 23.0072 21.7957 23.0072 22.1603V25.1811H10.5072ZM12.5645 23.0978H15.7676L14.3613 21.379C14.0488 21.4658 13.745 21.5787 13.4499 21.7176C13.1547 21.8565 12.8596 22.004 12.5645 22.1603V23.0978ZM17.7467 23.0978H20.9238V22.1603C20.646 21.9867 20.3596 21.8348 20.0645 21.7045C19.7693 21.5743 19.4655 21.4658 19.153 21.379L17.7467 23.0978ZM4.25716 23.0978C3.68424 23.0978 3.19379 22.8938 2.78581 22.4858C2.37782 22.0778 2.17383 21.5874 2.17383 21.0144V6.43111C2.17383 5.85819 2.37782 5.36774 2.78581 4.95976C3.19379 4.55177 3.68424 4.34778 4.25716 4.34778H18.8405C19.4134 4.34778 19.9039 4.55177 20.3118 4.95976C20.7198 5.36774 20.9238 5.85819 20.9238 6.43111V11.6394C20.646 11.2922 20.3422 10.9624 20.0124 10.6499C19.6825 10.3374 19.2919 10.129 18.8405 10.0249V6.43111H4.25716V21.0144H8.58008C8.52799 21.2054 8.48893 21.3964 8.46289 21.5874C8.43685 21.7783 8.42383 21.9693 8.42383 22.1603V23.0978H4.25716ZM6.34049 10.5978H13.6322C14.0835 10.2506 14.5783 9.99014 15.1165 9.81653C15.6547 9.64292 16.2016 9.55611 16.7572 9.55611V8.51444H6.34049V10.5978ZM6.34049 14.7644H11.5488C11.5488 14.3999 11.5879 14.044 11.666 13.6967C11.7441 13.3495 11.8526 13.011 11.9915 12.6811H6.34049V14.7644ZM6.34049 18.9311H9.93424C10.1252 18.7749 10.3292 18.636 10.5462 18.5144C10.7632 18.3929 10.9846 18.2801 11.2103 18.1759V16.8478H6.34049V18.9311ZM4.25716 21.0144V6.43111V9.99882V9.55611V21.0144Z" fill="#FAFCFE"/>
</g>
<defs>
<clipPath id="clip0_26_316">
<rect width="25" height="25" fill="white"/>
</clipPath>
</defs>
</svg>
