<svg width="25" height="25" viewBox="0 0 25 25" fill="none" xmlns="http://www.w3.org/2000/svg">
<g clip-path="url(#clip0_26_513)">
<path d="M16.7572 17.8896C15.8891 17.8896 15.1513 17.5857 14.5436 16.9781C13.936 16.3705 13.6322 15.6326 13.6322 14.7646C13.6322 13.8965 13.936 13.1587 14.5436 12.551C15.1513 11.9434 15.8891 11.6396 16.7572 11.6396C17.6252 11.6396 18.3631 11.9434 18.9707 12.551C19.5783 13.1587 19.8822 13.8965 19.8822 14.7646C19.8822 15.6326 19.5783 16.3705 18.9707 16.9781C18.3631 17.5857 17.6252 17.8896 16.7572 17.8896ZM16.7572 15.8062C17.0523 15.8062 17.2997 15.7064 17.4993 15.5068C17.699 15.3071 17.7988 15.0597 17.7988 14.7646C17.7988 14.4694 17.699 14.222 17.4993 14.0224C17.2997 13.8227 17.0523 13.7229 16.7572 13.7229C16.462 13.7229 16.2146 13.8227 16.015 14.0224C15.8153 14.222 15.7155 14.4694 15.7155 14.7646C15.7155 15.0597 15.8153 15.3071 16.015 15.5068C16.2146 15.7064 16.462 15.8062 16.7572 15.8062ZM10.5072 25.1812V22.1604C10.5072 21.7958 10.594 21.4529 10.7676 21.1318C10.9412 20.8106 11.1842 20.5545 11.4967 20.3635C12.0523 20.0337 12.6382 19.7602 13.2546 19.5432C13.8709 19.3262 14.5002 19.1656 15.1426 19.0614L16.7572 21.0146L18.3717 19.0614C19.0141 19.1656 19.6391 19.3262 20.2467 19.5432C20.8544 19.7602 21.436 20.0337 21.9915 20.3635C22.304 20.5545 22.5514 20.8106 22.7337 21.1318C22.916 21.4529 23.0072 21.7958 23.0072 22.1604V25.1812H10.5072ZM12.5645 23.0979H15.7676L14.3613 21.3791C14.0488 21.466 13.745 21.5788 13.4499 21.7177C13.1547 21.8566 12.8596 22.0041 12.5645 22.1604V23.0979ZM17.7467 23.0979H20.9238V22.1604C20.646 21.9868 20.3596 21.8349 20.0645 21.7047C19.7693 21.5745 19.4655 21.466 19.153 21.3791L17.7467 23.0979ZM4.25716 23.0979C3.68424 23.0979 3.19379 22.8939 2.78581 22.4859C2.37782 22.0779 2.17383 21.5875 2.17383 21.0146V6.43123C2.17383 5.85832 2.37782 5.36787 2.78581 4.95988C3.19379 4.55189 3.68424 4.3479 4.25716 4.3479H18.8405C19.4134 4.3479 19.9039 4.55189 20.3118 4.95988C20.7198 5.36787 20.9238 5.85832 20.9238 6.43123V11.6396C20.646 11.2923 20.3422 10.9625 20.0124 10.65C19.6825 10.3375 19.2919 10.1291 18.8405 10.025V6.43123H4.25716V21.0146H8.58008C8.52799 21.2055 8.48893 21.3965 8.46289 21.5875C8.43685 21.7785 8.42383 21.9694 8.42383 22.1604V23.0979H4.25716ZM6.34049 10.5979H13.6322C14.0835 10.2507 14.5783 9.99026 15.1165 9.81665C15.6547 9.64304 16.2016 9.55623 16.7572 9.55623V8.51457H6.34049V10.5979ZM6.34049 14.7646H11.5488C11.5488 14.4 11.5879 14.0441 11.666 13.6969C11.7441 13.3496 11.8526 13.0111 11.9915 12.6812H6.34049V14.7646ZM6.34049 18.9312H9.93424C10.1252 18.775 10.3292 18.6361 10.5462 18.5146C10.7632 18.393 10.9846 18.2802 11.2103 18.176V16.8479H6.34049V18.9312ZM4.25716 21.0146V6.43123V9.99894V9.55623V21.0146Z" fill="#24ABFF"/>
</g>
<defs>
<clipPath id="clip0_26_513">
<rect width="25" height="25" fill="white"/>
</clipPath>
</defs>
</svg>
