<svg width="21" height="21" viewBox="0 0 21 21" fill="none" xmlns="http://www.w3.org/2000/svg">
<path d="M11.8125 19.25C10.2375 19.25 8.89583 18.6958 7.7875 17.5875C6.67917 16.4792 6.125 15.1375 6.125 13.5625V13.0594C4.87083 12.8552 3.82812 12.2682 2.99687 11.2984C2.16563 10.3286 1.75 9.1875 1.75 7.875V2.625H4.375V1.75H6.125V5.25H4.375V4.375H3.5V7.875C3.5 8.8375 3.84271 9.66146 4.52813 10.3469C5.21354 11.0323 6.0375 11.375 7 11.375C7.9625 11.375 8.78646 11.0323 9.47187 10.3469C10.1573 9.66146 10.5 8.8375 10.5 7.875V4.375H9.625V5.25H7.875V1.75H9.625V2.625H12.25V7.875C12.25 9.1875 11.8344 10.3286 11.0031 11.2984C10.1719 12.2682 9.12917 12.8552 7.875 13.0594V13.5625C7.875 14.6562 8.25781 15.5859 9.02344 16.3516C9.78906 17.1172 10.7188 17.5 11.8125 17.5C12.9062 17.5 13.8359 17.1172 14.6016 16.3516C15.3672 15.5859 15.75 14.6562 15.75 13.5625V12.0969C15.2396 11.9219 14.8203 11.6083 14.4922 11.1562C14.1641 10.7042 14 10.1937 14 9.625C14 8.89583 14.2552 8.27604 14.7656 7.76562C15.276 7.25521 15.8958 7 16.625 7C17.3542 7 17.974 7.25521 18.4844 7.76562C18.9948 8.27604 19.25 8.89583 19.25 9.625C19.25 10.1937 19.0859 10.7042 18.7578 11.1562C18.4297 11.6083 18.0104 11.9219 17.5 12.0969V13.5625C17.5 15.1375 16.9458 16.4792 15.8375 17.5875C14.7292 18.6958 13.3875 19.25 11.8125 19.25ZM16.625 10.5C16.8729 10.5 17.0807 10.4161 17.2484 10.2484C17.4161 10.0807 17.5 9.87292 17.5 9.625C17.5 9.37708 17.4161 9.16927 17.2484 9.00156C17.0807 8.83385 16.8729 8.75 16.625 8.75C16.3771 8.75 16.1693 8.83385 16.0016 9.00156C15.8339 9.16927 15.75 9.37708 15.75 9.625C15.75 9.87292 15.8339 10.0807 16.0016 10.2484C16.1693 10.4161 16.3771 10.5 16.625 10.5Z" fill="#24ABFF"/>
</svg>
