<svg width="37" height="25" viewBox="0 0 37 25" fill="none" xmlns="http://www.w3.org/2000/svg">
<path d="M7.59091 24.3068C6.2197 24.3068 4.99242 23.9545 3.90909 23.25C2.82576 22.5455 1.9697 21.5227 1.34091 20.1818C0.712121 18.8409 0.397727 17.2121 0.397727 15.2955C0.397727 13.3561 0.715909 11.7197 1.35227 10.3864C1.99621 9.04545 2.86364 8.03409 3.95455 7.35227C5.04545 6.66288 6.26136 6.31818 7.60227 6.31818C8.625 6.31818 9.46591 6.49242 10.125 6.84091C10.7841 7.18182 11.3068 7.5947 11.6932 8.07955C12.0795 8.55682 12.3788 9.00758 12.5909 9.43182H12.7614V0.727272H16.8864V24H12.8409V21.25H12.5909C12.3788 21.6742 12.072 22.125 11.6705 22.6023C11.2689 23.072 10.7386 23.4735 10.0795 23.8068C9.42045 24.1402 8.59091 24.3068 7.59091 24.3068ZM8.73864 20.9318C9.60985 20.9318 10.3523 20.697 10.9659 20.2273C11.5795 19.75 12.0455 19.0871 12.3636 18.2386C12.6818 17.3902 12.8409 16.4015 12.8409 15.2727C12.8409 14.1439 12.6818 13.1629 12.3636 12.3295C12.053 11.4962 11.5909 10.8485 10.9773 10.3864C10.3712 9.92424 9.625 9.69318 8.73864 9.69318C7.82197 9.69318 7.05682 9.93182 6.44318 10.4091C5.82955 10.8864 5.36742 11.5455 5.05682 12.3864C4.74621 13.2273 4.59091 14.1894 4.59091 15.2727C4.59091 16.3636 4.74621 17.3371 5.05682 18.1932C5.375 19.0417 5.84091 19.7121 6.45455 20.2045C7.07576 20.6894 7.83712 20.9318 8.73864 20.9318ZM21.2699 24V6.54545H25.2585V9.45455H25.4403C25.7585 8.44697 26.304 7.67045 27.0767 7.125C27.857 6.57197 28.7472 6.29545 29.7472 6.29545C29.9744 6.29545 30.2282 6.30682 30.5085 6.32954C30.7964 6.3447 31.035 6.37121 31.2244 6.40909V10.1932C31.0502 10.1326 30.7737 10.0795 30.3949 10.0341C30.0237 9.98106 29.6638 9.95455 29.3153 9.95455C28.5653 9.95455 27.8911 10.1174 27.2926 10.4432C26.7017 10.7614 26.2358 11.2045 25.8949 11.7727C25.554 12.3409 25.3835 12.9962 25.3835 13.7386V24H21.2699ZM34.4915 24.25C33.8021 24.25 33.2112 24.0076 32.7188 23.5227C32.2263 23.0379 31.9839 22.447 31.9915 21.75C31.9839 21.0682 32.2263 20.4848 32.7188 20C33.2112 19.5152 33.8021 19.2727 34.4915 19.2727C35.1581 19.2727 35.7377 19.5152 36.2301 20C36.7301 20.4848 36.9839 21.0682 36.9915 21.75C36.9839 22.2121 36.8627 22.6326 36.6278 23.0114C36.4006 23.3902 36.0975 23.6932 35.7188 23.9205C35.3475 24.1402 34.9384 24.25 34.4915 24.25Z" fill="#24ABFF"/>
</svg>
