<svg width="106" height="26" viewBox="0 0 106 26" fill="none" xmlns="http://www.w3.org/2000/svg">
<path d="M7.59091 25.3068C6.2197 25.3068 4.99242 24.9545 3.90909 24.25C2.82576 23.5455 1.9697 22.5227 1.34091 21.1818C0.712121 19.8409 0.397727 18.2121 0.397727 16.2955C0.397727 14.3561 0.715909 12.7197 1.35227 11.3864C1.99621 10.0455 2.86364 9.03409 3.95455 8.35227C5.04545 7.66288 6.26136 7.31818 7.60227 7.31818C8.625 7.31818 9.46591 7.49242 10.125 7.84091C10.7841 8.18182 11.3068 8.5947 11.6932 9.07955C12.0795 9.55682 12.3788 10.0076 12.5909 10.4318H12.7614V1.72727H16.8864V25H12.8409V22.25H12.5909C12.3788 22.6742 12.072 23.125 11.6705 23.6023C11.2689 24.072 10.7386 24.4735 10.0795 24.8068C9.42045 25.1402 8.59091 25.3068 7.59091 25.3068ZM8.73864 21.9318C9.60985 21.9318 10.3523 21.697 10.9659 21.2273C11.5795 20.75 12.0455 20.0871 12.3636 19.2386C12.6818 18.3902 12.8409 17.4015 12.8409 16.2727C12.8409 15.1439 12.6818 14.1629 12.3636 13.3295C12.053 12.4962 11.5909 11.8485 10.9773 11.3864C10.3712 10.9242 9.625 10.6932 8.73864 10.6932C7.82197 10.6932 7.05682 10.9318 6.44318 11.4091C5.82955 11.8864 5.36742 12.5455 5.05682 13.3864C4.74621 14.2273 4.59091 15.1894 4.59091 16.2727C4.59091 17.3636 4.74621 18.3371 5.05682 19.1932C5.375 20.0417 5.84091 20.7121 6.45455 21.2045C7.07576 21.6894 7.83712 21.9318 8.73864 21.9318ZM21.2699 25V7.54545H25.2585V10.4545H25.4403C25.7585 9.44697 26.304 8.67045 27.0767 8.125C27.857 7.57197 28.7472 7.29545 29.7472 7.29545C29.9744 7.29545 30.2282 7.30682 30.5085 7.32954C30.7964 7.3447 31.035 7.37121 31.2244 7.40909V11.1932C31.0502 11.1326 30.7737 11.0795 30.3949 11.0341C30.0237 10.9811 29.6638 10.9545 29.3153 10.9545C28.5653 10.9545 27.8911 11.1174 27.2926 11.4432C26.7017 11.7614 26.2358 12.2045 25.8949 12.7727C25.554 13.3409 25.3835 13.9962 25.3835 14.7386V25H21.2699ZM34.4915 25.25C33.8021 25.25 33.2112 25.0076 32.7188 24.5227C32.2263 24.0379 31.9839 23.447 31.9915 22.75C31.9839 22.0682 32.2263 21.4848 32.7188 21C33.2112 20.5152 33.8021 20.2727 34.4915 20.2727C35.1581 20.2727 35.7377 20.5152 36.2301 21C36.7301 21.4848 36.9839 22.0682 36.9915 22.75C36.9839 23.2121 36.8627 23.6326 36.6278 24.0114C36.4006 24.3902 36.0975 24.6932 35.7188 24.9205C35.3475 25.1402 34.9384 25.25 34.4915 25.25ZM49.9545 7.54545V10.7273H39.9205V7.54545H49.9545ZM42.3977 3.36364H46.5114V19.75C46.5114 20.303 46.5947 20.7273 46.7614 21.0227C46.9356 21.3106 47.1629 21.5076 47.4432 21.6136C47.7235 21.7197 48.0341 21.7727 48.375 21.7727C48.6326 21.7727 48.8674 21.7538 49.0795 21.7159C49.2992 21.678 49.4659 21.6439 49.5795 21.6136L50.2727 24.8295C50.053 24.9053 49.7386 24.9886 49.3295 25.0795C48.928 25.1705 48.4356 25.2235 47.8523 25.2386C46.822 25.2689 45.8939 25.1136 45.0682 24.7727C44.2424 24.4242 43.5871 23.8864 43.1023 23.1591C42.625 22.4318 42.3902 21.5227 42.3977 20.4318V3.36364ZM53.3949 25V7.54545H57.5085V25H53.3949ZM55.4631 5.06818C54.8116 5.06818 54.2509 4.85227 53.7812 4.42045C53.3116 3.98106 53.0767 3.45454 53.0767 2.84091C53.0767 2.2197 53.3116 1.69318 53.7812 1.26136C54.2509 0.821969 54.8116 0.602272 55.4631 0.602272C56.1222 0.602272 56.6828 0.821969 57.1449 1.26136C57.6146 1.69318 57.8494 2.2197 57.8494 2.84091C57.8494 3.45454 57.6146 3.98106 57.1449 4.42045C56.6828 4.85227 56.1222 5.06818 55.4631 5.06818ZM61.7386 25V7.54545H65.6705V10.5114H65.875C66.2386 9.51136 66.8409 8.73106 67.6818 8.17045C68.5227 7.60227 69.5265 7.31818 70.6932 7.31818C71.875 7.31818 72.8712 7.60606 73.6818 8.18182C74.5 8.75 75.0758 9.52651 75.4091 10.5114H75.5909C75.9773 9.54167 76.6288 8.76894 77.5455 8.19318C78.4697 7.60985 79.5644 7.31818 80.8295 7.31818C82.4356 7.31818 83.7462 7.82576 84.7614 8.84091C85.7765 9.85606 86.2841 11.3371 86.2841 13.2841V25H82.1591V13.9205C82.1591 12.8371 81.8712 12.0455 81.2955 11.5455C80.7197 11.0379 80.0152 10.7841 79.1818 10.7841C78.1894 10.7841 77.4129 11.0947 76.8523 11.7159C76.2992 12.3295 76.0227 13.1288 76.0227 14.1136V25H71.9886V13.75C71.9886 12.8485 71.7159 12.1288 71.1705 11.5909C70.6326 11.053 69.928 10.7841 69.0568 10.7841C68.4659 10.7841 67.928 10.9356 67.4432 11.2386C66.9583 11.5341 66.572 11.9545 66.2841 12.5C65.9962 13.0379 65.8523 13.6667 65.8523 14.3864V25H61.7386ZM98.1847 25.3409C96.4347 25.3409 94.9233 24.9773 93.6506 24.25C92.3854 23.5152 91.4119 22.4773 90.7301 21.1364C90.0483 19.7879 89.7074 18.2008 89.7074 16.375C89.7074 14.5795 90.0483 13.0038 90.7301 11.6477C91.4195 10.2841 92.3816 9.22348 93.6165 8.46591C94.8513 7.70076 96.3021 7.31818 97.9688 7.31818C99.0445 7.31818 100.06 7.49242 101.014 7.84091C101.976 8.18182 102.825 8.71212 103.56 9.43182C104.302 10.1515 104.885 11.0682 105.31 12.1818C105.734 13.2879 105.946 14.6061 105.946 16.1364V17.3977H91.6392V14.625H102.003C101.995 13.8371 101.825 13.1364 101.491 12.5227C101.158 11.9015 100.692 11.4129 100.094 11.0568C99.5028 10.7008 98.8134 10.5227 98.0256 10.5227C97.1847 10.5227 96.446 10.7273 95.8097 11.1364C95.1733 11.5379 94.6771 12.0682 94.321 12.7273C93.9725 13.3788 93.7945 14.0947 93.7869 14.875V17.2955C93.7869 18.3106 93.9725 19.1818 94.3438 19.9091C94.715 20.6288 95.2339 21.1818 95.9006 21.5682C96.5672 21.947 97.3475 22.1364 98.2415 22.1364C98.84 22.1364 99.3816 22.053 99.8665 21.8864C100.351 21.7121 100.772 21.4583 101.128 21.125C101.484 20.7917 101.753 20.3788 101.935 19.8864L105.776 20.3182C105.533 21.3333 105.071 22.2197 104.389 22.9773C103.715 23.7273 102.851 24.3106 101.798 24.7273C100.745 25.1364 99.5407 25.3409 98.1847 25.3409Z" fill="#24ABFF"/>
</svg>
